<svg xmlns="http://www.w3.org/2000/svg" viewBox="0 0 32 32" width="32" height="32">
  <defs>
    <linearGradient id="goldGradient" x1="0%" y1="0%" x2="100%" y2="100%">
      <stop offset="0%" style="stop-color:#FFD700;stop-opacity:1" />
      <stop offset="50%" style="stop-color:#B8860B;stop-opacity:1" />
      <stop offset="100%" style="stop-color:#DAA520;stop-opacity:1" />
    </linearGradient>
    <linearGradient id="accentGradient" x1="0%" y1="0%" x2="100%" y2="100%">
      <stop offset="0%" style="stop-color:#FFA500;stop-opacity:1" />
      <stop offset="100%" style="stop-color:#FF8C00;stop-opacity:1" />
    </linearGradient>
  </defs>
  
  <!-- Background circle -->
  <circle cx="16" cy="16" r="15" fill="url(#goldGradient)" stroke="#B8860B" stroke-width="1"/>
  
  <!-- Letter B stylized -->
  <path d="M10 8 L10 24 L18 24 C20.5 24 22 22.5 22 20 C22 18.5 21 17.5 20 17 C21 16.5 21.5 15.5 21.5 14 C21.5 11.5 20 8 17 8 Z M13 11 L16.5 11 C17.5 11 18 11.5 18 12.5 C18 13.5 17.5 14 16.5 14 L13 14 Z M13 17 L17 17 C18 17 18.5 17.5 18.5 18.5 C18.5 19.5 18 20 17 20 L13 20 Z" fill="white" stroke="#B8860B" stroke-width="0.5"/>
  
  <!-- Decorative elements -->
  <circle cx="24" cy="8" r="2" fill="url(#accentGradient)" opacity="0.8"/>
  <circle cx="8" cy="24" r="1.5" fill="url(#accentGradient)" opacity="0.6"/>
  <circle cx="26" cy="26" r="1" fill="#FFD700" opacity="0.7"/>
</svg>